# xmcd CD database file
#
# Track frame offsets:
#	150
#	14723
#	28985
#	42693
#	53585
#	67255
#	81963
#	97333
#	106635
#	124493
#	145580
#	162105
#	173888
#	191933
#	202908
#	218130
#	233433
#	248283
#
# Disc length: 3488 seconds
#
# Revision: 0
# Processed by: cddbd v1.4PL0 Copyright (c) Steve Scherf et al.
# Submitted via: CDex 1.50beta9
#
DISCID=020d9e12
DTITLE=Armstrong, Louis  and the All Stars - The Complete Decca Studio Recordings - CD5
DYEAR=1993
DGENRE=Jazz
TTITLE0=Hotter Than That
TTITLE1=Gut Bucket Blues
TTITLE2=Weary Blues
TTITLE3=Potato Head Blues
TTITLE4=Cornet Chop Suey
TTITLE5=Of All The Wrongs You've Done To Me
TTITLE6=Two Deuces
TTITLE7=Mandy Make Up Your Mind
TTITLE8=Wild Man Blues
TTITLE9=Gully Low Blues
TTITLE10=Everybody Loves My Baby
TTITLE11=Heebies Jeebies
TTITLE12=King Of The Zulus
TTITLE13=Frog-i-more Rag
TTITLE14=Georgia Grind
TTITLE15=Snag It
TTITLE16=Dippermouth Blues
TTITLE17=Canal Street Blues
EXTD=YEAR: 1993
EXTT0=
EXTT1=
EXTT2=
EXTT3=
EXTT4=
EXTT5=
EXTT6=
EXTT7=
EXTT8=
EXTT9=
EXTT10=
EXTT11=
EXTT12=
EXTT13=
EXTT14=
EXTT15=
EXTT16=
EXTT17=
PLAYORDER=
